<svg xmlns="http://www.w3.org/2000/svg" viewBox="0 0 881.87 163.64">
  <defs>
    <style>.cls-1{fill:gold;}.cls-2,.cls-3{fill:#fff;}.cls-3{fill-rule:evenodd;}</style>
  </defs>
  <title>htmlden-logo_1</title>
  <g id="htmlden" data-name="htmlden">
    <path id="n" class="cls-1" d="M877.87,161h-38a4,4,0,0,1-4-4V144a4,4,0,0,1,4-4h6V84.56c0-7.67-1.66-10.09-2.37-10.77-1.63-1.56-4-2.32-7.21-2.32-8.37,0-16,4.33-23.42,13.23V140h7a4,4,0,0,1,4,4v13a4,4,0,0,1-4,4h-38a4,4,0,0,1-4-4l-1-13a4,4,0,0,1,4-4h9V74h-9a4,4,0,0,1-4-4V57a4,4,0,0,1,4-4h27a4,4,0,0,1,4,3.77l.27,4.65c8.45-7.29,17.95-11,28.33-11,9.71,0,17,3,21.69,8.78,4.48,5.58,6.75,13.36,6.75,23.12V140h9a4,4,0,0,1,4,4v13A4,4,0,0,1,877.87,161Z"/>
    <path id="e" class="cls-1" d="M732.28,163.08c-14.62,0-26.25-5-34.57-15-8.16-9.71-12.29-23.27-12.29-40.33,0-17.56,4.35-31.61,12.94-41.74,8.75-10.33,19.9-15.57,33.15-15.57a33,33,0,0,1,27.13,13.27c6.66,8.51,10,20.58,10.23,35.88v7.91a5.16,5.16,0,0,1-4.19,4.45H709.44c.68,8.69,2.75,16,6.16,21.17,3.6,5.51,9.33,8.34,17.51,8.64A49.47,49.47,0,0,0,760,134a4,4,0,0,1,4.07-.13,3.37,3.37,0,0,1,1.82,3.51v13.77a3.31,3.31,0,0,1-1.64,3.4C755.12,160.22,744.37,163.08,732.28,163.08ZM710,91h35.22c-.4-6.68-1.87-11.66-4.37-14.82-2.8-3.53-6.7-5.24-11.92-5.24a16.54,16.54,0,0,0-12.86,5.7C713.13,79.92,711.09,84.74,710,91Z"/>
    <path id="d" class="cls-1" d="M676.59,140.06h-8V4.06a4,4,0,0,0-4-4h-31a4,4,0,0,0-4,4v12a4,4,0,0,0,4,4h11V52.57a46.65,46.65,0,0,0-15.87-2.86c-14.1,0-25.76,5.58-34.67,16.58-8.71,10.77-13.13,24.87-13.13,41.93,0,16.12,3.69,29.43,11,39.55,7.55,10.53,17.89,15.87,30.74,15.87A36.45,36.45,0,0,0,645.25,156l.12,1.4a4,4,0,0,0,4,3.66h27.23a4,4,0,0,0,4-4v-13A4,4,0,0,0,676.59,140.06Zm-32-5.55c-5.29,5.26-11.26,7.82-18.19,7.82-7.25,0-12.44-2.72-15.85-8.3-3.76-6.12-5.66-15.38-5.66-27.5,0-12.51,2.1-21.71,6.24-27.36,3.91-5.33,9.91-7.93,18.33-7.93a49.47,49.47,0,0,1,15.13,2.41Z"/>
    <path id="l" class="cls-2" d="M572.87,161h-41a4,4,0,0,1-4-4V144a4,4,0,0,1,4-4h9V20h-9a4,4,0,0,1-4-4V4a4,4,0,0,1,4-4h28a4,4,0,0,1,4,4V140h9a4,4,0,0,1,4,4v13A4,4,0,0,1,572.87,161Z"/>
    <path id="m" class="cls-2" d="M510.87,161h-38a4,4,0,0,1-4-4V144a4,4,0,0,1,4-4h6V84.56c0-7.67-1.67-10.09-2.39-10.77-1.64-1.56-4-2.32-7.27-2.32-7.8,0-15.12,3.86-22.34,11.79V140h7a4,4,0,0,1,4,4v13a4,4,0,0,1-4,4h-36a4,4,0,0,1-4-4V144a4,4,0,0,1,4-4h7V84.56c0-7.71-1.62-10.14-2.31-10.82-1.55-1.53-3.79-2.27-6.84-2.27-8.25,0-15.73,4.31-22.85,13.18V140h6a4,4,0,0,1,4,4v13a4,4,0,0,1-4,4h-38a4,4,0,0,1-4-4V144a4,4,0,0,1,4-4h9V74h-9a4,4,0,0,1-4-4V57a4,4,0,0,1,4-4H388a4,4,0,0,1,4,3.77l.26,4.55c8.29-7.23,17.57-10.88,27.68-10.88,13.71,0,20.56,6.18,23.93,13,9-8.64,19.22-13,30.5-13,9.74,0,17.07,3,21.77,8.78,4.49,5.58,6.77,13.36,6.77,23.12V140h8a4,4,0,0,1,4,4v13A4,4,0,0,1,510.87,161Z"/>
    <path id="t" class="cls-2" d="M327.43,163c-8.25,0-14.95-2.26-19.91-6.72s-7.65-11.25-7.65-19.83V74h-9a4,4,0,0,1-4-4V57a4,4,0,0,1,4-4h9V34a4,4,0,0,1,3.27-3.93l15-2.78a4.12,4.12,0,0,1,1.64,0,4,4,0,0,1,3.13,3.92V53h19a4,4,0,0,1,4,4V70a4,4,0,0,1-4,4h-19v60.74c0,5.24,1.19,6.69,1.55,7a7.53,7.53,0,0,0,5.17,1.59,23.16,23.16,0,0,0,10.35-2.61,4.12,4.12,0,0,1,2.35-.47,4,4,0,0,1,3.58,4v11.42a4,4,0,0,1-2.25,3.6A37,37,0,0,1,327.43,163Z"/>
    <path id="h" class="cls-2" d="M283.89,161H246.16a4,4,0,0,1-4-4V144.12a4,4,0,0,1,4-4h6v-55c0-7.62-1.64-10-2.34-10.7-1.62-1.55-4-2.3-7.16-2.3-8.35,0-16,3.91-23.27,12v56.09h6a4,4,0,0,1,4,4V157a4,4,0,0,1-4,4H187.56a4,4,0,0,1-4-4V144.12a4,4,0,0,1,4-4h8.94V21h-8.94a4,4,0,0,1-4-4V4.09a4,4,0,0,1,4-4h27.81a4,4,0,0,1,4,4v56.5A44,44,0,0,1,246.72,51c9.64,0,16.89,2.94,21.54,8.74,4.44,5.54,6.7,13.28,6.7,23v57.36h8.93a4,4,0,0,1,4,4V157A4,4,0,0,1,283.89,161Z"/>
    <g id="markup">
      <path id="circle" class="cls-3" d="M80.53.12a80.53,80.53,0,1,0,80.53,80.53A80.53,80.53,0,0,0,80.53.12Zm0,142.29a61.76,61.76,0,1,1,61.76-61.76A61.76,61.76,0,0,1,80.53,142.41Z"/>
      <polygon id="gt" class="cls-2" points="93.28 84.64 94.98 71.16 107.61 61.35 97.8 48.72 99.49 35.28 121.05 63.04 93.28 84.64"/>
      <polygon id="lt" class="cls-2" points="61.51 126.18 40.02 98.37 67.83 76.83 66.11 90.31 53.45 100.09 63.23 112.75 61.51 126.18"/>
      <path id="bar" class="cls-2" d="M78.93,127.71H70L82,34.63h8.9Z"/>
    </g>
  </g>

</svg>
